<svg width="53" height="48" viewBox="0 0 53 48" fill="none" xmlns="http://www.w3.org/2000/svg">
<path d="M15.9 10.1053V5.05263C15.9 3.66316 16.4194 2.47326 17.4582 1.48295C18.4952 0.494315 19.7425 0 21.2 0H31.8C33.2575 0 34.5057 0.494315 35.5445 1.48295C36.5815 2.47326 37.1 3.66316 37.1 5.05263V10.1053H47.7C49.1575 10.1053 50.4057 10.6004 51.4445 11.5907C52.4815 12.5794 53 13.7684 53 15.1579V42.9474C53 44.3368 52.4815 45.5267 51.4445 46.5171C50.4057 47.5057 49.1575 48 47.7 48H5.3C3.8425 48 2.59523 47.5057 1.5582 46.5171C0.5194 45.5267 0 44.3368 0 42.9474V15.1579C0 13.7684 0.5194 12.5794 1.5582 11.5907C2.59523 10.6004 3.8425 10.1053 5.3 10.1053H15.9ZM21.2 10.1053H31.8V5.05263H21.2V10.1053ZM47.7 32.8421H34.45V37.8947H18.55V32.8421H5.3V42.9474H47.7V32.8421ZM23.85 32.8421H29.15V27.7895H23.85V32.8421ZM5.3 27.7895H18.55V22.7368H34.45V27.7895H47.7V15.1579H5.3V27.7895Z" fill="#444444"/>
</svg>
