<svg width="205" height="48" viewBox="0 0 205 48" fill="none" xmlns="http://www.w3.org/2000/svg">
<path d="M14 26C12.96 24.207 11.85 20.449 16.008 15.756C17.221 14.615 18.814 13.116 21.724 12.333C24.842 10.867 26.401 8.52 24.323 5C25.882 5.978 29 9.693 29 16.733" stroke="#444444" stroke-width="4" stroke-linecap="round" stroke-linejoin="round"/>
<path d="M16.253 27.93C8 23.57 4.51 30.195 4 33.755C8 33.755 12.679 36.666 14.721 39.578C18.397 44.238 24.081 43.138 26.463 42.005C33.815 38.122 36.333 38.445 36.673 39.093C37.083 42.199 38.205 42.976 38.716 42.976C42.392 43.364 43.651 38.931 43.821 36.666C44.638 27.347 42.46 26.959 41.269 27.93C36.367 33.754 33.44 34.887 32.589 34.725C28.914 33.948 29.356 32.46 30.037 31.812C36.572 26.377 36.504 14.34 35.653 9C33.203 14.825 29.186 17.251 27.484 17.737C17.274 20.455 15.742 25.665 16.253 27.93Z" stroke="#444444" stroke-width="4" stroke-linecap="round" stroke-linejoin="round"/>
<path d="M12 33.412C13.1046 33.412 14 32.5166 14 31.412C14 30.3074 13.1046 29.412 12 29.412C10.8954 29.412 10 30.3074 10 31.412C10 32.5166 10.8954 33.412 12 33.412Z" fill="#444444"/>
<path d="M67.45 33.175C66.3667 33.175 65.375 32.925 64.475 32.425C63.5917 31.925 62.8833 31.175 62.35 30.175C61.8333 29.1583 61.575 27.875 61.575 26.325C61.575 24.7583 61.825 23.475 62.325 22.475C62.8417 21.475 63.5417 20.7333 64.425 20.25C65.3083 19.75 66.3167 19.5 67.45 19.5C68.7667 19.5 69.925 19.7833 70.925 20.35C71.9417 20.9167 72.7417 21.7083 73.325 22.725C73.925 23.7417 74.225 24.9417 74.225 26.325C74.225 27.7083 73.925 28.9167 73.325 29.95C72.7417 30.9667 71.9417 31.7583 70.925 32.325C69.925 32.8917 68.7667 33.175 67.45 33.175ZM60.05 37.85V19.65H63.025V22.8L62.925 26.35L63.175 29.9V37.85H60.05ZM67.1 30.5C67.85 30.5 68.5167 30.3333 69.1 30C69.7 29.6667 70.175 29.1833 70.525 28.55C70.875 27.9167 71.05 27.175 71.05 26.325C71.05 25.4583 70.875 24.7167 70.525 24.1C70.175 23.4667 69.7 22.9833 69.1 22.65C68.5167 22.3167 67.85 22.15 67.1 22.15C66.35 22.15 65.675 22.3167 65.075 22.65C64.475 22.9833 64 23.4667 63.65 24.1C63.3 24.7167 63.125 25.4583 63.125 26.325C63.125 27.175 63.3 27.9167 63.65 28.55C64 29.1833 64.475 29.6667 65.075 30C65.675 30.3333 66.35 30.5 67.1 30.5ZM77.1887 33V19.65H80.3137V33H77.1887ZM78.7637 17.45C78.1803 17.45 77.697 17.2667 77.3137 16.9C76.947 16.5333 76.7637 16.0917 76.7637 15.575C76.7637 15.0417 76.947 14.6 77.3137 14.25C77.697 13.8833 78.1803 13.7 78.7637 13.7C79.347 13.7 79.822 13.875 80.1887 14.225C80.572 14.5583 80.7637 14.9833 80.7637 15.5C80.7637 16.05 80.5803 16.5167 80.2137 16.9C79.847 17.2667 79.3637 17.45 78.7637 17.45ZM90.4652 38.025C89.2319 38.025 88.0236 37.8583 86.8402 37.525C85.6736 37.2083 84.7152 36.7417 83.9652 36.125L85.3652 33.775C85.9486 34.2583 86.6819 34.6417 87.5652 34.925C88.4652 35.225 89.3736 35.375 90.2902 35.375C91.7569 35.375 92.8319 35.0333 93.5152 34.35C94.1986 33.6833 94.5402 32.675 94.5402 31.325V28.95L94.7902 25.925L94.6902 22.9V19.65H97.6652V30.975C97.6652 33.3917 97.0486 35.1667 95.8152 36.3C94.5819 37.45 92.7986 38.025 90.4652 38.025ZM90.0652 32.4C88.7986 32.4 87.6486 32.1333 86.6152 31.6C85.5986 31.05 84.7902 30.2917 84.1902 29.325C83.6069 28.3583 83.3152 27.225 83.3152 25.925C83.3152 24.6417 83.6069 23.5167 84.1902 22.55C84.7902 21.5833 85.5986 20.8333 86.6152 20.3C87.6486 19.7667 88.7986 19.5 90.0652 19.5C91.1986 19.5 92.2152 19.725 93.1152 20.175C94.0152 20.625 94.7319 21.325 95.2652 22.275C95.8152 23.225 96.0902 24.4417 96.0902 25.925C96.0902 27.4083 95.8152 28.6333 95.2652 29.6C94.7319 30.55 94.0152 31.2583 93.1152 31.725C92.2152 32.175 91.1986 32.4 90.0652 32.4ZM90.5402 29.75C91.3236 29.75 92.0236 29.5917 92.6402 29.275C93.2569 28.9417 93.7319 28.4917 94.0652 27.925C94.4152 27.3417 94.5902 26.675 94.5902 25.925C94.5902 25.175 94.4152 24.5167 94.0652 23.95C93.7319 23.3667 93.2569 22.925 92.6402 22.625C92.0236 22.3083 91.3236 22.15 90.5402 22.15C89.7569 22.15 89.0486 22.3083 88.4152 22.625C87.7986 22.925 87.3152 23.3667 86.9652 23.95C86.6319 24.5167 86.4652 25.175 86.4652 25.925C86.4652 26.675 86.6319 27.3417 86.9652 27.925C87.3152 28.4917 87.7986 28.9417 88.4152 29.275C89.0486 29.5917 89.7569 29.75 90.5402 29.75ZM108.049 33.175C106.565 33.175 105.265 32.8833 104.149 32.3C103.049 31.7 102.19 30.8833 101.574 29.85C100.974 28.8167 100.674 27.6417 100.674 26.325C100.674 24.9917 100.965 23.8167 101.549 22.8C102.149 21.7667 102.965 20.9583 103.999 20.375C105.049 19.7917 106.24 19.5 107.574 19.5C108.874 19.5 110.032 19.7833 111.049 20.35C112.065 20.9167 112.865 21.7167 113.449 22.75C114.032 23.7833 114.324 25 114.324 26.4C114.324 26.5333 114.315 26.6833 114.299 26.85C114.299 27.0167 114.29 27.175 114.274 27.325H103.149V25.25H112.624L111.399 25.9C111.415 25.1333 111.257 24.4583 110.924 23.875C110.59 23.2917 110.132 22.8333 109.549 22.5C108.982 22.1667 108.324 22 107.574 22C106.807 22 106.132 22.1667 105.549 22.5C104.982 22.8333 104.532 23.3 104.199 23.9C103.882 24.4833 103.724 25.175 103.724 25.975V26.475C103.724 27.275 103.907 27.9833 104.274 28.6C104.64 29.2167 105.157 29.6917 105.824 30.025C106.49 30.3583 107.257 30.525 108.124 30.525C108.874 30.525 109.549 30.4083 110.149 30.175C110.749 29.9417 111.282 29.575 111.749 29.075L113.424 31C112.824 31.7 112.065 32.2417 111.149 32.625C110.249 32.9917 109.215 33.175 108.049 33.175ZM123.325 33.175C121.959 33.175 120.742 32.8833 119.675 32.3C118.609 31.7 117.767 30.8833 117.15 29.85C116.534 28.8167 116.225 27.6417 116.225 26.325C116.225 24.9917 116.534 23.8167 117.15 22.8C117.767 21.7667 118.609 20.9583 119.675 20.375C120.742 19.7917 121.959 19.5 123.325 19.5C124.709 19.5 125.934 19.7917 127 20.375C128.084 20.9583 128.925 21.7583 129.525 22.775C130.142 23.7917 130.45 24.975 130.45 26.325C130.45 27.6417 130.142 28.8167 129.525 29.85C128.925 30.8833 128.084 31.7 127 32.3C125.934 32.8833 124.709 33.175 123.325 33.175ZM123.325 30.5C124.092 30.5 124.775 30.3333 125.375 30C125.975 29.6667 126.442 29.1833 126.775 28.55C127.125 27.9167 127.3 27.175 127.3 26.325C127.3 25.4583 127.125 24.7167 126.775 24.1C126.442 23.4667 125.975 22.9833 125.375 22.65C124.775 22.3167 124.1 22.15 123.35 22.15C122.584 22.15 121.9 22.3167 121.3 22.65C120.717 22.9833 120.25 23.4667 119.9 24.1C119.55 24.7167 119.375 25.4583 119.375 26.325C119.375 27.175 119.55 27.9167 119.9 28.55C120.25 29.1833 120.717 29.6667 121.3 30C121.9 30.3333 122.575 30.5 123.325 30.5ZM141.014 19.5C142.08 19.5 143.03 19.7083 143.864 20.125C144.714 20.5417 145.38 21.1833 145.864 22.05C146.347 22.9 146.589 24 146.589 25.35V33H143.464V25.75C143.464 24.5667 143.18 23.6833 142.614 23.1C142.064 22.5167 141.289 22.225 140.289 22.225C139.555 22.225 138.905 22.375 138.339 22.675C137.772 22.975 137.33 23.425 137.014 24.025C136.714 24.6083 136.564 25.35 136.564 26.25V33H133.439V19.65H136.414V23.25L135.889 22.15C136.355 21.3 137.03 20.65 137.914 20.2C138.814 19.7333 139.847 19.5 141.014 19.5ZM167.403 19.5C168.47 19.5 169.411 19.7083 170.228 20.125C171.061 20.5417 171.711 21.1833 172.178 22.05C172.645 22.9 172.878 24 172.878 25.35V33H169.753V25.75C169.753 24.5667 169.495 23.6833 168.978 23.1C168.461 22.5167 167.72 22.225 166.753 22.225C166.07 22.225 165.461 22.375 164.928 22.675C164.411 22.975 164.003 23.4167 163.703 24C163.42 24.5833 163.278 25.325 163.278 26.225V33H160.153V25.75C160.153 24.5667 159.895 23.6833 159.378 23.1C158.861 22.5167 158.12 22.225 157.153 22.225C156.47 22.225 155.861 22.375 155.328 22.675C154.811 22.975 154.403 23.4167 154.103 24C153.82 24.5833 153.678 25.325 153.678 26.225V33H150.553V19.65H153.528V23.2L153.003 22.15C153.453 21.2833 154.103 20.625 154.953 20.175C155.82 19.725 156.803 19.5 157.903 19.5C159.153 19.5 160.236 19.8083 161.153 20.425C162.086 21.0417 162.703 21.975 163.003 23.225L161.778 22.8C162.211 21.8 162.928 21 163.928 20.4C164.928 19.8 166.086 19.5 167.403 19.5ZM185.096 33V30.3L184.921 29.725V25C184.921 24.0833 184.646 23.375 184.096 22.875C183.546 22.3583 182.713 22.1 181.596 22.1C180.846 22.1 180.105 22.2167 179.371 22.45C178.655 22.6833 178.046 23.0083 177.546 23.425L176.321 21.15C177.038 20.6 177.888 20.1917 178.871 19.925C179.871 19.6417 180.905 19.5 181.971 19.5C183.905 19.5 185.396 19.9667 186.446 20.9C187.513 21.8167 188.046 23.2417 188.046 25.175V33H185.096ZM180.896 33.175C179.896 33.175 179.021 33.0083 178.271 32.675C177.521 32.325 176.938 31.85 176.521 31.25C176.121 30.6333 175.921 29.9417 175.921 29.175C175.921 28.425 176.096 27.75 176.446 27.15C176.813 26.55 177.405 26.075 178.221 25.725C179.038 25.375 180.121 25.2 181.471 25.2H185.346V27.275H181.696C180.63 27.275 179.913 27.45 179.546 27.8C179.18 28.1333 178.996 28.55 178.996 29.05C178.996 29.6167 179.221 30.0667 179.671 30.4C180.121 30.7333 180.746 30.9 181.546 30.9C182.313 30.9 182.996 30.725 183.596 30.375C184.213 30.025 184.655 29.5083 184.921 28.825L185.446 30.7C185.146 31.4833 184.605 32.0917 183.821 32.525C183.055 32.9583 182.08 33.175 180.896 33.175ZM192.057 33V19.65H195.182V33H192.057ZM193.632 17.45C193.049 17.45 192.565 17.2667 192.182 16.9C191.815 16.5333 191.632 16.0917 191.632 15.575C191.632 15.0417 191.815 14.6 192.182 14.25C192.565 13.8833 193.049 13.7 193.632 13.7C194.215 13.7 194.69 13.875 195.057 14.225C195.44 14.5583 195.632 14.9833 195.632 15.5C195.632 16.05 195.449 16.5167 195.082 16.9C194.715 17.2667 194.232 17.45 193.632 17.45ZM199.283 33V14.45H202.408V33H199.283Z" fill="#444444"/>
</svg>
