<svg width="61" height="48" viewBox="0 0 61 48" fill="none" xmlns="http://www.w3.org/2000/svg">
<path d="M56.6429 0H4.35714C3.20156 0 2.0933 0.505713 1.27618 1.40589C0.459055 2.30606 0 3.52696 0 4.8V43.2C0 44.473 0.459055 45.6939 1.27618 46.5941C2.0933 47.4943 3.20156 48 4.35714 48H56.6429C57.7984 48 58.9067 47.4943 59.7238 46.5941C60.5409 45.6939 61 44.473 61 43.2V4.8C61 3.52696 60.5409 2.30606 59.7238 1.40589C58.9067 0.505713 57.7984 0 56.6429 0V0ZM51.85 4.8L30.5 21.072L9.15 4.8H51.85ZM4.35714 43.2V6.984L29.2582 25.968C29.6229 26.2467 30.0562 26.3961 30.5 26.3961C30.9438 26.3961 31.3771 26.2467 31.7418 25.968L56.6429 6.984V43.2H4.35714Z" fill="#444444"/>
</svg>
